<svg xmlns="http://www.w3.org/2000/svg" fill="currentColor" width="128" height="128" viewBox="0 0 128 128">
  <path d="M39 15.5a4.49 4.49 0 0 0-4.5 4.5v8.5h9V20a4.49 4.49 0 0 0-4.5-4.5m4.5 13V37a4.49 4.49 0 0 1-4.5 4.5 4.49 4.49 0 0 1-4.5-4.5v-8.5h-4.426C23.384 28.5 18 33.964 18 40.75v59.5c0 6.787 5.385 12.25 12.074 12.25h67.852c6.69 0 12.074-5.463 12.074-12.25v-59.5c0-6.786-5.385-12.25-12.074-12.25H93.5V37a4.49 4.49 0 0 1-4.5 4.5 4.49 4.49 0 0 1-4.5-4.5v-8.5zm41 0h9V20a4.49 4.49 0 0 0-4.5-4.5 4.49 4.49 0 0 0-4.5 4.5zm-50 17h59A4.49 4.49 0 0 1 98 50a4.49 4.49 0 0 1-4.5 4.5h-59A4.49 4.49 0 0 1 30 50a4.49 4.49 0 0 1 4.5-4.5m0 20.75h9a4.49 4.49 0 0 1 4.5 4.5 4.49 4.49 0 0 1-4.5 4.5h-9a4.49 4.49 0 0 1-4.5-4.5 4.49 4.49 0 0 1 4.5-4.5m25 0h9a4.49 4.49 0 0 1 4.5 4.5 4.49 4.49 0 0 1-4.5 4.5h-9a4.49 4.49 0 0 1-4.5-4.5 4.49 4.49 0 0 1 4.5-4.5m25 0h9a4.49 4.49 0 0 1 4.5 4.5 4.49 4.49 0 0 1-4.5 4.5h-9a4.49 4.49 0 0 1-4.5-4.5 4.49 4.49 0 0 1 4.5-4.5M34.5 87h9a4.49 4.49 0 0 1 4.5 4.5 4.49 4.49 0 0 1-4.5 4.5h-9a4.49 4.49 0 0 1-4.5-4.5 4.49 4.49 0 0 1 4.5-4.5m25 0h9a4.49 4.49 0 0 1 4.5 4.5 4.49 4.49 0 0 1-4.5 4.5h-9a4.49 4.49 0 0 1-4.5-4.5 4.49 4.49 0 0 1 4.5-4.5m25 0h9a4.49 4.49 0 0 1 4.5 4.5 4.49 4.49 0 0 1-4.5 4.5h-9a4.49 4.49 0 0 1-4.5-4.5 4.49 4.49 0 0 1 4.5-4.5"/>
</svg>