<svg xmlns="http://www.w3.org/2000/svg" fill="#0d6efd" width="493" height="130" viewBox="0 0 493 130">
  <path d="M65 7.799a10.85 10.85 0 0 0-10.303 6.252l-41.654 89.324c-2.532 5.429-.183 11.882 5.246 14.414s11.883.183 14.414-5.246l41.652-89.324c2.532-5.43.183-11.883-5.246-14.414A10.8 10.8 0 0 0 65 7.799m15.396 19.205L68.428 52.668l27.922 59.875c2.531 5.429 8.983 7.778 14.412 5.246s7.777-8.985 5.246-14.414zm311.758 2.088v20.426q-2.558-2.816-6.566-4.436-3.967-1.62-8.53-1.62-6.652 0-12.238 3.411-5.543 3.412-8.785 9.383-3.197 5.969-3.197 13.09 0 7.079 3.197 12.922 3.199 5.841 8.742 9.168 5.587 3.326 12.368 3.326 4.903 0 8.656-1.748 3.752-1.75 7.29-5.672v6.27h10.663v-64.52Zm76.373 0v10.916h11.6V29.092Zm-314.705 15.01q-7.079 0-12.709 3.283-5.628 3.284-8.783 9.127-3.156 5.798-3.156 13.09 0 7.207 3.113 12.964 3.156 5.757 8.7 8.998 5.586 3.199 12.58 3.198 5.115 0 8.826-1.705 3.752-1.749 7.25-5.715v6.27h10.617V45.21h-10.617v6.48q-2.986-3.964-6.782-5.755-3.794-1.834-9.039-1.834m57.44 0q-10.278 0-17.057 7.12-6.78 7.122-6.781 17.868 0 7.378 3.027 13.264 3.028 5.84 8.444 9.125 5.458 3.283 12.28 3.283 5.118 0 8.786-1.748 3.71-1.79 7.121-5.8-.298 7.804-3.666 11.641-3.369 3.839-9.852 3.838-4.05 0-6.822-1.193-2.772-1.152-5.33-3.967h-13.178q2.943 7.293 9.467 11.344t15.395 4.05q12.835 0 19.744-8.4 2.814-3.368 4.05-8.144 1.28-4.734 1.28-11.942V45.21h-11.088v6.14q-5.415-7.249-15.82-7.25m59.529 0q-6.993 0-12.877 3.412-5.843 3.368-9.254 9.254-3.369 5.84-3.369 12.834 0 5.203 2.047 9.894 2.047 4.648 5.502 8.016 3.496 3.326 8.357 5.289 4.862 1.961 10.32 1.96 11.685 0 19.19-8.741 2.815-3.454 3.838-6.737h-12.666q-2.26 2.644-4.649 3.752-2.387 1.066-5.968 1.067-5.16 0-8.742-2.559t-4.649-6.951h37.483q.426-2.09.427-4.479 0-7.419-3.242-13.345-3.198-5.97-8.912-9.297-5.714-3.37-12.836-3.37m56.502 0q-4.221 0-7.334 1.322t-6.31 4.435v-4.648h-10.704v48.4h11.598V70.797q0-4.734.385-7.207.383-2.474 1.449-4.137 2.686-4.69 8.656-4.691 4.436 0 6.781 2.857 2.474 2.943 2.473 12.324v23.668h11.6V67.684q0-6.27-.725-9.809-.683-3.54-2.432-6.354-4.861-7.42-15.437-7.42m109.082 0q-6.994 0-12.879 3.412-5.842 3.368-9.252 9.254-3.369 5.84-3.369 12.834 0 5.203 2.047 9.894 2.046 4.648 5.5 8.016 3.497 3.326 8.36 5.289 4.86 1.961 10.318 1.96 11.685 0 19.19-8.741 2.813-3.454 3.837-6.737h-12.664q-2.26 2.644-4.649 3.752-2.388 1.066-5.97 1.067-5.16 0-8.742-2.559-3.581-2.559-4.647-6.951h37.482q.427-2.09.426-4.479 0-7.419-3.24-13.345-3.198-5.97-8.912-9.297-5.715-3.37-12.836-3.37m32.152 1.109v48.4h11.6v-48.4zm-90.02 8.912q6.313 0 10.407 4.307 4.095 4.265 4.094 10.832 0 6.226-4.094 10.533-4.051 4.307-9.937 4.307-6.013 0-10.235-4.393-4.178-4.392-4.178-10.746 0-6.312 4.008-10.576 4.051-4.264 9.936-4.264m-223.661.639q6.353 0 10.361 4.136 4.05 4.137 4.05 10.704 0 6.48-3.88 10.49-3.838 4.009-10.148 4.01-6.354 0-10.362-3.924-3.966-3.967-3.967-10.32 0-6.568 3.924-10.83 3.966-4.266 10.022-4.266m57.568 0q6.354.001 10.234 4.052 3.923 4.051 3.922 10.618 0 6.694-3.752 10.703-3.752 3.966-10.064 3.967-6.225 0-9.936-3.924-3.668-3.966-3.668-10.576 0-6.696 3.625-10.747 3.668-4.093 9.64-4.093m58.549 0q5.372 0 8.826 2.474t4.563 7.121h-26.823q1.365-4.69 4.778-7.12 3.454-2.475 8.656-2.475m165.582 0q5.373 0 8.828 2.474t4.563 7.121h-26.823q1.364-4.69 4.776-7.12 3.454-2.475 8.656-2.475"/>
</svg>