<svg xmlns="http://www.w3.org/2000/svg" width="200" height="46" fill="#0d6efd" viewBox="0 0 200 46">
  <path d="M26.431.004a4.39 4.39 0 0 0-4.168 2.53L5.413 38.668a4.388 4.388 0 1 0 7.953 3.71L30.216 6.24a4.387 4.387 0 0 0-2.122-5.83A4.37 4.37 0 0 0 26.43.003m6.229 7.77-4.842 10.382 11.296 24.222a4.387 4.387 0 1 0 7.952-3.709zm126.12.844v8.263q-1.034-1.139-2.656-1.794-1.605-.656-3.45-.656-2.692 0-4.951 1.38-2.243 1.38-3.554 3.796-1.294 2.415-1.294 5.296 0 2.864 1.294 5.227 1.294 2.363 3.536 3.71 2.26 1.345 5.004 1.345 1.983 0 3.501-.707 1.518-.708 2.95-2.295v2.537h4.313V8.62Zm30.897 0v4.416h4.693V8.618ZM62.364 14.69q-2.864 0-5.141 1.33-2.277 1.327-3.554 3.691-1.276 2.345-1.276 5.295 0 2.916 1.259 5.245 1.277 2.33 3.52 3.64 2.26 1.294 5.089 1.294 2.07 0 3.57-.69 1.518-.708 2.933-2.312v2.537h4.295V15.14h-4.295v2.62q-1.208-1.604-2.743-2.328-1.535-.742-3.657-.742m23.237 0q-4.158 0-6.9 2.88-2.743 2.882-2.743 7.23 0 2.984 1.224 5.365 1.225 2.362 3.416 3.691 2.208 1.328 4.968 1.328 2.07 0 3.554-.707 1.501-.724 2.881-2.346-.12 3.157-1.483 4.71-1.363 1.552-3.986 1.552-1.638 0-2.76-.483-1.12-.466-2.156-1.605h-5.33q1.19 2.95 3.83 4.59 2.638 1.638 6.227 1.638 5.192 0 7.987-3.398 1.139-1.363 1.639-3.295.518-1.915.518-4.83V15.14H92v2.483q-2.19-2.933-6.4-2.933m24.082 0q-2.829 0-5.209 1.38-2.364 1.362-3.744 3.744-1.363 2.362-1.363 5.192 0 2.104.829 4.002.828 1.88 2.225 3.243 1.415 1.346 3.381 2.14 1.967.793 4.175.793 4.727 0 7.763-3.537 1.14-1.397 1.553-2.725h-5.124q-.914 1.07-1.88 1.518-.966.431-2.415.431-2.087 0-3.537-1.035-1.449-1.035-1.88-2.812h15.163q.173-.845.173-1.812 0-3-1.311-5.398-1.294-2.416-3.606-3.76-2.311-1.365-5.193-1.365m22.858 0q-1.707 0-2.967.535t-2.552 1.794v-1.88h-4.33v19.58h4.691V25.49q0-1.915.156-2.916.155-1 .586-1.673 1.087-1.898 3.502-1.898 1.794 0 2.743 1.156 1.001 1.19 1 4.985v9.575h4.693V24.23q0-2.536-.293-3.968-.276-1.432-.984-2.57-1.966-3.002-6.245-3.002m44.129 0q-2.83 0-5.21 1.38-2.364 1.363-3.743 3.744-1.363 2.363-1.363 5.192 0 2.105.828 4.003.828 1.88 2.225 3.242 1.415 1.346 3.382 2.14 1.966.793 4.174.793 4.727 0 7.764-3.536 1.137-1.398 1.552-2.726h-5.123q-.915 1.07-1.881 1.518-.966.431-2.415.432-2.088 0-3.537-1.035-1.449-1.036-1.88-2.812h15.163q.173-.846.173-1.812 0-3.002-1.311-5.399-1.294-2.415-3.605-3.76-2.312-1.364-5.193-1.364m13.007.448v19.58h4.693v-19.58zm-36.417 3.606q2.554 0 4.21 1.742 1.656 1.725 1.656 4.382 0 2.52-1.656 4.261-1.64 1.742-4.02 1.742-2.433 0-4.14-1.777-1.691-1.776-1.691-4.347 0-2.553 1.621-4.278 1.64-1.725 4.02-1.725m-90.481.258q2.57 0 4.191 1.673 1.639 1.674 1.639 4.33 0 2.622-1.57 4.244-1.553 1.622-4.105 1.622-2.57 0-4.192-1.587-1.605-1.605-1.605-4.175 0-2.657 1.587-4.38 1.605-1.727 4.055-1.727m23.289 0q2.57 0 4.14 1.64 1.587 1.638 1.586 4.295 0 2.708-1.518 4.33-1.517 1.604-4.07 1.604-2.52 0-4.02-1.587-1.484-1.604-1.484-4.278 0-2.71 1.466-4.348 1.484-1.656 3.9-1.656m23.686 0q2.173 0 3.57 1 1.398 1.002 1.846 2.882h-10.85q.551-1.898 1.932-2.88 1.397-1.002 3.502-1.002m66.986 0q2.173 0 3.57 1 1.399 1.002 1.847 2.882h-10.851q.551-1.898 1.932-2.88 1.397-1.002 3.502-1.002"/>
</svg>