<svg xmlns="http://www.w3.org/2000/svg" fill="currentColor" width="600" height="600" viewBox="0 0 600 600">
  <path d="M302 19.037a46 46 0 0 0-43.695 26.516L81.65 424.39a46 46 0 0 0 22.248 61.13 46 46 0 0 0 61.131-22.25L341.684 84.434a46 46 0 0 0-22.248-61.131A46 46 0 0 0 302 19.037m65.3 81.451-50.755 108.844 118.414 253.94c10.737 23.025 38.106 32.986 61.13 22.25 23.025-10.738 32.986-38.107 22.249-61.131zm20.204 408.282v20.425q-2.559-2.814-6.566-4.435-3.966-1.62-8.53-1.62-6.652 0-12.238 3.41-5.544 3.413-8.785 9.384-3.197 5.969-3.197 13.09 0 7.08 3.197 12.921 3.198 5.842 8.742 9.168 5.587 3.327 12.367 3.326 4.905 0 8.656-1.748 3.753-1.748 7.291-5.671v6.27h10.663v-64.52zm76.373 0v10.916h11.6V508.77Zm-314.705 15.01q-7.08-.001-12.71 3.283-5.628 3.284-8.782 9.126-3.157 5.8-3.157 13.09 0 7.208 3.114 12.965 3.155 5.757 8.699 8.998 5.587 3.197 12.58 3.197 5.117.001 8.826-1.705 3.753-1.748 7.25-5.714v6.27h10.617v-48.401h-10.617v6.48q-2.985-3.966-6.781-5.756-3.794-1.833-9.04-1.834m57.44 0q-10.278 0-17.057 7.12-6.781 7.122-6.782 17.868 0 7.378 3.028 13.263 3.027 5.842 8.443 9.125 5.459 3.284 12.281 3.283 5.118 0 8.786-1.748 3.71-1.79 7.12-5.798-.297 7.803-3.665 11.64-3.369 3.838-9.852 3.838-4.05 0-6.822-1.193-2.772-1.152-5.33-3.967h-13.178q2.942 7.292 9.467 11.344 6.525 4.05 15.394 4.05 12.836 0 19.744-8.4 2.815-3.369 4.051-8.144 1.28-4.734 1.28-11.942v-39.23h-11.088v6.14q-5.415-7.25-15.82-7.25m59.529 0q-6.993 0-12.877 3.411-5.843 3.37-9.254 9.254-3.37 5.842-3.37 12.834 0 5.204 2.048 9.895 2.047 4.648 5.501 8.015 3.497 3.327 8.358 5.29 4.86 1.96 10.32 1.96 11.684 0 19.19-8.742 2.814-3.453 3.838-6.736h-12.666q-2.26 2.644-4.649 3.752-2.387 1.066-5.969 1.066-5.16 0-8.742-2.558-3.582-2.559-4.648-6.951h37.482q.427-2.09.428-4.479-.001-7.42-3.242-13.346-3.198-5.97-8.912-9.297-5.715-3.368-12.836-3.369m56.502 0q-4.223 0-7.334 1.322-3.113 1.321-6.311 4.435v-4.648h-10.703v48.4h11.598v-22.814q0-4.734.384-7.207.384-2.474 1.45-4.137 2.685-4.691 8.656-4.692 4.435 0 6.781 2.858 2.473 2.942 2.473 12.324v23.668h11.6v-25.928q0-6.269-.725-9.808-.683-3.54-2.432-6.354-4.861-7.42-15.437-7.42m109.082 0q-6.994 0-12.88 3.411-5.84 3.37-9.251 9.254-3.37 5.842-3.37 12.834 0 5.204 2.047 9.895 2.047 4.648 5.5 8.015 3.498 3.327 8.36 5.29 4.86 1.96 10.318 1.96 11.685 0 19.19-8.742 2.814-3.453 3.838-6.736h-12.664q-2.26 2.644-4.649 3.752-2.389 1.066-5.97 1.066-5.16 0-8.743-2.558-3.581-2.559-4.646-6.951h37.482q.426-2.09.426-4.479 0-7.42-3.24-13.346-3.199-5.97-8.912-9.297-5.715-3.368-12.836-3.369m32.152 1.109v48.4h11.6v-48.4zm-90.02 8.912q6.313 0 10.407 4.306 4.093 4.265 4.093 10.832 0 6.226-4.093 10.534-4.053 4.306-9.938 4.306-6.013 0-10.234-4.392-4.178-4.392-4.178-10.746 0-6.312 4.008-10.577 4.05-4.263 9.935-4.263m-223.662.638q6.354 0 10.362 4.137 4.05 4.137 4.05 10.703 0 6.482-3.88 10.49-3.838 4.01-10.149 4.01-6.353 0-10.361-3.924-3.967-3.965-3.967-10.32 0-6.566 3.924-10.83 3.966-4.265 10.021-4.266m57.569 0q6.354 0 10.234 4.053 3.922 4.05 3.922 10.617 0 6.695-3.752 10.704-3.753 3.965-10.064 3.966-6.226 0-9.936-3.924-3.668-3.966-3.668-10.576 0-6.694 3.625-10.746 3.668-4.094 9.639-4.094m58.548 0q5.374 0 8.827 2.475 3.453 2.473 4.562 7.121h-26.82q1.365-4.69 4.777-7.12 3.454-2.475 8.656-2.476m165.583 0q5.373 0 8.828 2.475 3.453 2.473 4.562 7.121h-26.822q1.365-4.69 4.775-7.12 3.454-2.475 8.657-2.476"/>
</svg>