<svg xmlns="http://www.w3.org/2000/svg" fill="currentColor" width="128" height="128" viewBox="0 0 128 128">
  <path d="M64 20a21.25 26.149 0 0 0-21.25 26.149A21.25 26.149 0 0 0 64 72.297 21.25 26.149 0 0 0 85.25 46.15 21.25 26.149 0 0 0 64 20M45.573 77.829c-4.985 0-9.336 3.297-15.597 8.318C23.433 91.732 20 95.511 20 99.954c0 4.444 4.041 8.046 9.026 8.046h69.948c4.985 0 9.026-3.602 9.026-8.046s-3.433-8.222-9.976-13.807c-6.261-5.021-10.612-8.318-15.597-8.318-2.237 0-4.395.57-6.054 1.599-3.34 1.709-7.766 2.666-12.373 2.675-4.607-.009-9.034-.966-12.373-2.675-1.66-1.03-3.817-1.6-6.054-1.6"/>
</svg>